<?xml version="1.0"?>
<svg xmlns="http://www.w3.org/2000/svg" id="line" height="512px" viewBox="0 0 64 64" width="512px"><g><path d="m55 33a23 23 0 1 0 -23 23 23.025 23.025 0 0 0 23-23zm-44 0a21 21 0 1 1 21 21 21.024 21.024 0 0 1 -21-21z" data-original="#000000" class="active-path" data-old_color="#000000" fill="#F10000"/><path d="m10.846 46.328-1.692 1.072a26.922 26.922 0 0 0 12.446 10.523l.771-1.846a24.919 24.919 0 0 1 -11.525-9.749z" data-original="#000000" class="active-path" data-old_color="#000000" fill="#F10000"/><path d="m54.755 47.539-1.684-1.078a24.948 24.948 0 0 1 -11.456 9.623l.77 1.846a26.934 26.934 0 0 0 12.37-10.391z" data-original="#000000" class="active-path" data-old_color="#000000" fill="#F10000"/><path d="m58.866 48.477-1.732-1a29.171 29.171 0 0 1 -14.5 12.511l.734 1.862a31.187 31.187 0 0 0 15.498-13.373z" data-original="#000000" class="active-path" data-old_color="#000000" fill="#F10000"/><path d="m20.849 61.934.72-1.866a29.159 29.159 0 0 1 -14.7-12.591l-1.732 1a31.16 31.16 0 0 0 15.712 13.457z" data-original="#000000" class="active-path" data-old_color="#000000" fill="#F10000"/><path d="m46 34v-2h-13v-13h-2v14a1 1 0 0 0 1 1z" data-original="#000000" class="active-path" data-old_color="#000000" fill="#F10000"/><path d="m35 8a1 1 0 0 0 1-1v-1a4 4 0 0 0 -8 0v1a1 1 0 0 0 1 1zm-3-4a2 2 0 0 1 2 2h-4a2 2 0 0 1 2-2z" data-original="#000000" class="active-path" data-old_color="#000000" fill="#F10000"/><path d="m45.793 7.793-.5.5a1 1 0 0 0 0 1.414l9 9a1 1 0 0 0 1.414 0l.5-.5a7.364 7.364 0 0 0 -10.414-10.414zm9.2 8.787-7.573-7.574a5.364 5.364 0 0 1 7.574 7.574z" data-original="#000000" class="active-path" data-old_color="#000000" fill="#F10000"/><path d="m8.157 18.207.5.5a1 1 0 0 0 1.414 0l9-9a1 1 0 0 0 0-1.414l-.5-.5a7.364 7.364 0 0 0 -10.414 10.414zm5.207-10.571a5.32 5.32 0 0 1 3.58 1.37l-7.574 7.574a5.364 5.364 0 0 1 3.994-8.944z" data-original="#000000" class="active-path" data-old_color="#000000" fill="#F10000"/></g> </svg>
