<svg xmlns="http://www.w3.org/2000/svg" width="18" height="14" viewBox="0 0 18 14"><defs><style>.a{fill:#8a8a8a;}</style></defs><path class="a" d="M318.77,51.938h1.93v.8a.181.181,0,0,0,.181.181h.42a.181.181,0,0,0,.181-.181v-.8h1.93a.262.262,0,0,1,.262.262v4.118a.262.262,0,0,1-.262.262H318.77a.262.262,0,0,1-.262-.262V52.2A.262.262,0,0,1,318.77,51.938Z" transform="translate(-317.375 -51.938)"/><g transform="translate(0 1.415)"><g transform="translate(1.956 8.333)"><path class="a" d="M323.1,326.548a2.126,2.126,0,1,0-2.127-2.126A2.129,2.129,0,0,0,323.1,326.548Zm0-3.181a1.055,1.055,0,1,1-1.055,1.055A1.056,1.056,0,0,1,323.1,323.366Z" transform="translate(-320.974 -322.295)"/><g transform="translate(11.791)"><path class="a" d="M2.126,326.548A2.126,2.126,0,1,0,0,324.421,2.129,2.129,0,0,0,2.126,326.548Zm0-3.181a1.055,1.055,0,1,1-1.055,1.055A1.056,1.056,0,0,1,2.126,323.366Z" transform="translate(0 -322.295)"/></g></g><path class="a" d="M17.493,96.818v-.573H16.01a.6.6,0,0,1-.607-.6v-.425a.6.6,0,0,1,.607-.6h7.429a.6.6,0,0,1,.607.6v.431a.6.6,0,0,1-.607.6h-.821v2.295h4.115a4.078,4.078,0,0,1,1.159-1.167l-1.619-5.741h-1.5a.6.6,0,1,1,0-1.194H26.9a.793.793,0,0,1,.272.062.6.6,0,0,1,.235.2l4.308,6.351a.733.733,0,0,1,.152.625.659.659,0,0,1-.863.322,2.784,2.784,0,0,0-.835-.121,2.848,2.848,0,0,0-2.869,2.821.6.6,0,0,1-.607.6H21.984a.6.6,0,0,1-.607-.6,2.869,2.869,0,0,0-5.737,0,.607.607,0,0,1-1.214,0A4.035,4.035,0,0,1,17.493,96.818Z" transform="translate(-14.425 -90.444)"/></g></svg>