<?xml version="1.0" encoding="utf-8"?>
<!-- Generator: Adobe Illustrator 24.2.3, SVG Export Plug-In . SVG Version: 6.00 Build 0)  -->
<svg version="1.1" id="Layer_1" xmlns="http://www.w3.org/2000/svg" xmlns:xlink="http://www.w3.org/1999/xlink" x="0px" y="0px"
	 viewBox="0 0 40 40" style="enable-background:new 0 0 40 40;" xml:space="preserve">
<style type="text/css">
	.st0{fill:#F44336;}
</style>
<g>
	<g>
		<g>
			<g>
				<path class="st0" d="M37.5,20.5c-0.2-0.3-0.2-0.7,0-1.1l1.5-3.1c0.8-1.7,0.2-3.7-1.5-4.7l-3.1-1.6c-0.3-0.2-0.5-0.5-0.6-0.8
					l-0.6-3.4c-0.3-1.9-2-3.2-3.9-2.9l-3.4,0.5c-0.3,0-0.7-0.1-1-0.3L22.4,1c-1.4-1.3-3.5-1.3-4.9,0l-2.4,2.3
					c-0.3,0.2-0.6,0.4-1,0.3l-3.5-0.5C8.9,2.9,7.1,4.1,6.8,5.9L6.2,9.3c-0.1,0.3-0.3,0.6-0.6,0.8l-3.1,1.6c-1.7,0.8-2.3,3-1.5,4.7
					l1.5,3.1c0.2,0.3,0.2,0.7,0,1.1l-1.5,3.1c-0.8,1.7-0.2,3.7,1.5,4.7l3.1,1.6c0.3,0.2,0.5,0.5,0.6,0.8l0.6,3.4
					c0.3,1.7,1.8,2.9,3.5,2.9c0.2,0,0.3,0,0.5,0l3.4-0.5c0.3,0,0.7,0.1,1,0.3l2.4,2.3c0.6,0.6,1.6,1,2.4,1c0.8,0,1.8-0.3,2.4-1
					l2.4-2.3c0.3-0.2,0.6-0.4,1-0.3l3.4,0.5c1.9,0.3,3.6-1,3.9-2.9l0.6-3.4c0.1-0.3,0.3-0.6,0.6-0.8l3.1-1.6c1.7-0.8,2.3-3,1.5-4.7
					L37.5,20.5z M15.3,9.5c2.3,0,4.2,1.9,4.2,4.2S17.7,18,15.3,18s-4.2-1.9-4.2-4.2S13,9.5,15.3,9.5z M13.1,28.5
					c-0.2,0.2-0.5,0.3-0.8,0.3c-0.3,0-0.6-0.1-0.8-0.3c-0.4-0.4-0.4-1.2,0-1.6l15.4-15.3c0.4-0.4,1.2-0.4,1.6,0s0.4,1.2,0,1.6
					L13.1,28.5z M24.7,30.5c-2.3,0-4.2-1.9-4.2-4.2s1.9-4.2,4.2-4.2s4.2,1.9,4.2,4.2S27,30.5,24.7,30.5z"/>
			</g>
		</g>
		<g>
			<g>
				<path class="st0" d="M24.7,24.2c-1.1,0-1.9,0.8-1.9,1.9c0,1.1,0.8,1.9,1.9,1.9s1.9-0.8,1.9-1.9C26.6,25.1,25.7,24.2,24.7,24.2z"
					/>
			</g>
		</g>
		<g>
			<g>
				<path class="st0" d="M15.3,11.9c-1.1,0-1.9,0.8-1.9,1.9s0.8,1.9,1.9,1.9s1.9-0.8,1.9-1.9S16.4,11.9,15.3,11.9z"/>
			</g>
		</g>
	</g>
</g>
</svg>
