<?xml version="1.0" encoding="utf-8"?>
<!-- Generator: Adobe Illustrator 24.2.3, SVG Export Plug-In . SVG Version: 6.00 Build 0)  -->
<svg version="1.1" id="Layer_1" xmlns="http://www.w3.org/2000/svg" xmlns:xlink="http://www.w3.org/1999/xlink" x="0px" y="0px"
	 viewBox="0 0 40 40" style="enable-background:new 0 0 40 40;" xml:space="preserve">
<style type="text/css">
	.st0{fill:#00CE84;}
	.st1{fill:#FFFFFF;}
</style>
<circle class="st0" cx="20" cy="20" r="20"/>
<g>
	<path class="st1" d="M21.1,15.2c-3.3,2.6-2.5,5.1-1.9,6.2c-0.5,0.9-0.9,1.7-1.1,2.4c-0.2-2.8-0.6-4.7-1.1-6
		c0.5-0.8,0.9-2.4-1.1-4.3c-2.7-2.5-6.7-1.2-6.7-1.2c3.2,2,1.3,4.4,3.1,6.1c1.1,1,2.3,0.9,3.1,0.6c-0.2-1.2-0.8-3.4-1.7-4.4
		c0,0,1.3,1.3,2.3,2.9c0.6,1.5,1.4,4.3,1.3,8.9c0,0.9,0,1.3,0,1.3c0,0.2,0.2,0.3,0.4,0.3c0,0,0,0,0,0c0.2,0,0.3-0.2,0.3-0.3
		c0-0.4,0-0.8,0-1.2c0.1-0.9,0.5-2.4,1.5-4.3c0,0,0,0,0,0C21.1,19.3,24,17,24,17c-1.4,1.3-2.4,4.4-2.9,6.1c1.2,0.6,2.9,0.9,4.5-0.4
		c2.9-2.3,0.3-6,5.2-8.4C30.9,14.3,25.3,12,21.1,15.2z"/>
</g>
</svg>
