<?xml version="1.0" encoding="utf-8"?>
<!-- Generator: Adobe Illustrator 24.2.3, SVG Export Plug-In . SVG Version: 6.00 Build 0)  -->
<svg version="1.1" id="Layer_1" xmlns="http://www.w3.org/2000/svg" xmlns:xlink="http://www.w3.org/1999/xlink" x="0px" y="0px"
	 viewBox="0 0 40 40" style="enable-background:new 0 0 40 40;" xml:space="preserve">
<style type="text/css">
	.st0{fill:#2497FB;}
	.st1{fill:#FFFFFF;}
</style>
<circle class="st0" cx="20" cy="20" r="20"/>
<g>
	<path class="st1" d="M22.5,16.6L22,17.3c-0.4,0.6-1.3,2-1.3,2.8c0,1,0.8,1.8,1.8,1.8s1.8-0.8,1.8-1.8c0-0.8-0.9-2.2-1.3-2.8
		L22.5,16.6z"/>
	<path class="st1" d="M18.2,13.4h1.2v1.2h2.5v1.2h1.2c0-1.6,0-3.3,0-4.9h-3.7v1.2h-1.2V9.7H9.6v6.1h8.6V13.4z"/>
	<path class="st1" d="M27.4,23.8c-0.6,0.5-1.1,0.9-1.5,1.2c-1.5,1.3-1.7,1.3-3,1.2h-4.7V25h5.1c0.4,0,0.7-0.4,0.6-0.8
		c-0.3-1-1.3-1.6-2.3-1.6h-1c-0.7-0.1-1.5-0.2-2.7-0.4C17.3,22,16.9,22,16.4,22c-1.2,0-2.1,0.4-3.7,1.2c-1.8,0.8-2.5,1.2-2.9,1.3
		c-0.2,0.1-0.3,0.2-0.3,0.4v5c0,0.3,0.3,0.5,0.6,0.4c0.4-0.1,0.9-0.3,2.3-0.9c1.6-0.7,3-1.3,4.7-0.8c3.2,0.8,8.2,1.2,12.9-3.7
		l0.4-0.4L30.1,24C29.4,23.2,28.2,23.2,27.4,23.8z"/>
</g>
</svg>
