<svg id="Layer_1" data-name="Layer 1" xmlns="http://www.w3.org/2000/svg" viewBox="0 0 106.01 40.5"><defs><style>.cls-1{fill:#efefef;}.cls-2{fill:#fff;}</style></defs><title>logo-white</title><path class="cls-1" d="M36.2,12.65a2.2,2.2,0,0,0-2.2-2.1H7.3a2.19,2.19,0,0,0-2.2,2l-.4,5.7H36.6Zm-25.3,3.4a1.8,1.8,0,1,1,1.8-1.8A1.79,1.79,0,0,1,10.9,16.05Zm19.3,0a1.8,1.8,0,1,1,1.8-1.8A1.86,1.86,0,0,1,30.2,16.05Z" transform="translate(-3 -1.25)"/><path class="cls-2" d="M20.4,26.75a4.12,4.12,0,0,0-4.1,4.1v10.9h8.1v-11A3.89,3.89,0,0,0,20.4,26.75Z" transform="translate(-3 -1.25)"/><path class="cls-2" d="M37.9,39.25l-1.4-21H4.6L3,39.25a2.21,2.21,0,0,0,2.2,2.4h6.2V30.75a9,9,0,0,1,18,0v10.9h6.2A2.23,2.23,0,0,0,37.9,39.25Z" transform="translate(-3 -1.25)"/><path class="cls-2" d="M30.1,14.65a.47.47,0,0,1-.5-.5c0-6.6-4-11.8-9.1-11.8s-9.1,5.2-9.1,11.8a.5.5,0,0,1-1,0c0-7.2,4.5-12.9,10.1-12.9S30.6,7,30.6,14.15A.47.47,0,0,1,30.1,14.65Z" transform="translate(-3 -1.25)"/><path class="cls-2" d="M55.4,23.55H53.1l-5.7-6.5v6.5H44.6V12.35H47l5.7,6.7v-6.7h2.8v11.2Z" transform="translate(-3 -1.25)"/><path class="cls-2" d="M68,23.55H59.2V12.35h8.7v2.4H62v2.1h5.5v2.2H62v2.1h6Z" transform="translate(-3 -1.25)"/><path class="cls-2" d="M76.3,16.15l2.3-3.8h3.3L78.4,18l3.5,5.6H78.6l-2.3-3.8" transform="translate(-3 -1.25)"/><path class="cls-2" d="M90.6,14.75v8.8H87.8v-8.8H84.2v-2.4h10v2.4Z" transform="translate(-3 -1.25)"/><path class="cls-2" d="M49.1,28.55c3.7,0,6.2,2.3,6.2,5.6s-2.5,5.6-6.2,5.6H44.7V28.55Zm-.1,8.9a3.21,3.21,0,1,0,0-6.4H47.4v6.4Z" transform="translate(-3 -1.25)"/><path class="cls-2" d="M68.8,34.25a6,6,0,1,1-6-5.9A5.87,5.87,0,0,1,68.8,34.25Zm-2.8,0a3.27,3.27,0,0,0-3.2-3.4,3.35,3.35,0,1,0,3.2,3.4Z" transform="translate(-3 -1.25)"/><path class="cls-2" d="M82.3,34.25a6,6,0,1,1-6-5.9A5.87,5.87,0,0,1,82.3,34.25Zm-2.8,0a3.27,3.27,0,0,0-3.2-3.4,3.35,3.35,0,1,0,3.2,3.4Z" transform="translate(-3 -1.25)"/><path class="cls-2" d="M91.1,39.85,87.7,36h-.8v3.9H84.1V28.55h5.7c2.4,0,4,1.5,4,3.7a3.55,3.55,0,0,1-3,3.6l3.5,4Zm-1.5-6.2c1,0,1.6-.5,1.6-1.4S90.6,31,89.6,31H87v2.7Z" transform="translate(-3 -1.25)"/><path class="cls-2" d="M102.3,18.45v-1.6h2.6V14h-2.6v-1.6H109V14h-2.6v2.8H109v1.6h-6.7Z" transform="translate(-3 -1.25)"/><path class="cls-2" d="M105.3,29.45a2.94,2.94,0,0,1-3.2-3,2.89,2.89,0,0,1,3.2-3H109v1.6h-3.7c-1,0-1.6.5-1.6,1.4s.6,1.3,1.6,1.3H109v1.6h-3.7Z" transform="translate(-3 -1.25)"/><path class="cls-2" d="M105.7,38.75a1.38,1.38,0,0,1-1.5,1.3c-1.1,0-1.9-.7-1.9-2.2v-3.5H109v3.4a1.79,1.79,0,0,1-1.8,2,1.31,1.31,0,0,1-1.5-1Zm-2-1.2a.71.71,0,1,0,1.4,0V36h-1.5v1.6Zm2.5-1.5v1.4a.71.71,0,0,0,.7.8.68.68,0,0,0,.7-.7v-1.5Z" transform="translate(-3 -1.25)"/><rect class="cls-2" x="94.81" y="11.3" width="0.5" height="27.2"/><polygon class="cls-2" points="71.21 16.7 67.71 11.1 71.01 11.1 74.41 16.7 71.01 22.3 67.71 22.3 71.21 16.7"/></svg>