<?xml version="1.0" encoding="utf-8"?>
<!-- Generator: Adobe Illustrator 23.0.3, SVG Export Plug-In . SVG Version: 6.00 Build 0)  -->
<svg version="1.1" id="Layer_1" xmlns="http://www.w3.org/2000/svg" xmlns:xlink="http://www.w3.org/1999/xlink" x="0px" y="0px"
	 viewBox="0 0 23.7 28.7" style="enable-background:new 0 0 23.7 28.7;" xml:space="preserve">
<style type="text/css">
	.st0{fill:#EE6B29;}
	.st1{fill:#253238;}
	.st2{fill:#F5871F;}
</style>
<g>
	<path class="st0" d="M21.3,9.1c0-0.7-0.7-1.2-1.3-1.2H3.9C3,7.9,2.5,8.2,2.5,9.1l-0.3,3.4h19.4L21.3,9.1z M6,11.1
		c-0.5,0-1-0.5-1-1.1c0-0.5,0.5-1,1-1s1.1,0.5,1.1,1C7.1,10.6,6.7,11.1,6,11.1z M17.8,11.1c-0.5,0-1.1-0.5-1.1-1.1
		c0-0.5,0.5-1.1,1.1-1.1c0.5,0,1.1,0.5,1.1,1.1S18.3,11.1,17.8,11.1z"/>
	<path class="st1" d="M17.7,10.3c-0.1,0-0.3-0.1-0.3-0.3c0-4-2.4-7.2-5.5-7.2S6.3,6,6.3,9.9c0,0.1-0.1,0.3-0.3,0.3
		c-0.1,0-0.3,0-0.3-0.3C5.7,5.5,8.4,2,11.8,2s6.1,3.4,6.1,7.8C17.9,10.1,17.8,10.3,17.7,10.3z"/>
	<g>
		<path class="st2" d="M22.4,25.2l-0.8-12.7H2.2L1.3,25.2c0,0.8,0.5,1.5,1.4,1.5h3.8V20c0-3,2.4-5.4,5.4-5.4s5.4,2.4,5.4,5.4v6.6H21
			C21.8,26.5,22.5,26,22.4,25.2z"/>
		<path class="st2" d="M11.9,17.6c-1.4,0-2.4,1.1-2.4,2.4v6.6h4.9V20C14.3,18.7,13.2,17.6,11.9,17.6z"/>
	</g>
</g>
</svg>
