<svg xmlns="http://www.w3.org/2000/svg" viewBox="0 0 34.91 40.5"><defs><style>.cls-1{fill:#efefef;}.cls-2{fill:#fff;}</style></defs><g id="Layer_2" data-name="Layer 2"><g id="Layer_1-2" data-name="Layer 1"><path class="cls-1" d="M33.21,11.4A2.2,2.2,0,0,0,31,9.3H4.31a2.19,2.19,0,0,0-2.2,2L1.71,17h31.9ZM7.91,14.8A1.8,1.8,0,1,1,9.71,13a1.8,1.8,0,0,1-1.8,1.8Zm19.3,0A1.8,1.8,0,1,1,29,13h0A1.86,1.86,0,0,1,27.21,14.8Z"/><path class="cls-2" d="M17.41,25.5a4.12,4.12,0,0,0-4.1,4.1V40.5h8.1v-11a3.89,3.89,0,0,0-3.78-4Z"/><path class="cls-2" d="M34.91,38l-1.4-21H1.61L0,38a2.2,2.2,0,0,0,2,2.39H8.41V29.5a9,9,0,0,1,18,0V40.4h6.2a2.22,2.22,0,0,0,2.3-2.15A2.09,2.09,0,0,0,34.91,38Z"/><path class="cls-2" d="M27.11,13.4a.47.47,0,0,1-.5-.44V12.9c0-6.6-4-11.8-9.1-11.8s-9.1,5.2-9.1,11.8a.5.5,0,0,1-.5.5.5.5,0,0,1-.5-.5C7.41,5.7,11.91,0,17.51,0s10.1,5.75,10.1,12.9a.47.47,0,0,1-.44.5Z"/></g></g></svg>