<?xml version="1.0" encoding="utf-8"?>
<!-- Generator: Adobe Illustrator 23.0.3, SVG Export Plug-In . SVG Version: 6.00 Build 0)  -->
<svg version="1.1" id="Layer_1" xmlns="http://www.w3.org/2000/svg" xmlns:xlink="http://www.w3.org/1999/xlink" x="0px" y="0px"
	 viewBox="0 0 112 43" style="enable-background:new 0 0 112 43;" xml:space="preserve">
<style type="text/css">
	.st0{fill:#EE6B29;}
	.st1{fill:#F5871F;}
	.st2{fill:#253238;}
</style>
<g>
	<g>
		<g>
			<path class="st0" d="M36.2,12.7c-0.1-1.2-1-2.1-2.2-2.1H7.3c-1.2,0-2.1,0.9-2.2,2l-0.4,5.7h31.9L36.2,12.7z M10.9,16.1
				c-1,0-1.8-0.8-1.8-1.8s0.8-1.8,1.8-1.8s1.8,0.8,1.8,1.8S11.9,16.1,10.9,16.1z M30.2,16.1c-1,0-1.8-0.8-1.8-1.8s0.8-1.8,1.8-1.8
				c1,0,1.8,0.8,1.8,1.8S31.1,16.1,30.2,16.1z"/>
			<g>
				<path class="st1" d="M20.4,26.8c-2.2,0-4.1,1.8-4.1,4.1v10.9h8.1V30.8C24.5,28.6,22.7,26.8,20.4,26.8z"/>
				<path class="st1" d="M37.9,39.3l-1.4-21H4.6L3,39.3c-0.1,1.3,0.9,2.4,2.2,2.4h6.2V30.8c0-5,4-9,9-9s9,4,9,9v10.9h6.2
					C37,41.7,38,40.6,37.9,39.3z"/>
			</g>
		</g>
		<path class="st2" d="M30.1,14.7c-0.3,0-0.5-0.2-0.5-0.5c0-6.6-4-11.8-9.1-11.8s-9.1,5.2-9.1,11.8c0,0.3-0.2,0.5-0.5,0.5
			s-0.5-0.2-0.5-0.5c0-7.2,4.5-12.9,10.1-12.9S30.6,7,30.6,14.2C30.6,14.5,30.4,14.7,30.1,14.7z"/>
	</g>
	<g>
		<g>
			<g>
				<path class="st2" d="M55.4,23.6h-2.3l-5.7-6.5v6.5h-2.8V12.4H47l5.7,6.7v-6.7h2.8V23.6z"/>
				<path class="st2" d="M68,23.6h-8.8V12.4h8.7v2.4H62v2.1h5.5v2.2H62v2.1h6V23.6z"/>
				<path class="st2" d="M76.3,16.2l2.3-3.8h3.3L78.4,18l3.5,5.6h-3.3l-2.3-3.8 M74.2,18"/>
				<path class="st2" d="M90.6,14.8v8.8h-2.8v-8.8h-3.6v-2.4h10v2.4H90.6z"/>
				<path class="st2" d="M49.1,28.6c3.7,0,6.2,2.3,6.2,5.6c0,3.3-2.5,5.6-6.2,5.6h-4.4V28.6H49.1z M49,37.5c2.1,0,3.5-1.3,3.5-3.2
					c0-1.9-1.4-3.2-3.5-3.2h-1.6v6.4H49z"/>
				<path class="st2" d="M68.8,34.3c0,3.3-2.6,5.9-6,5.9s-6-2.6-6-5.9c0-3.3,2.6-5.9,6-5.9S68.8,31,68.8,34.3z M66,34.3
					c0-1.9-1.4-3.4-3.2-3.4c-1.8,0-3.2,1.4-3.2,3.4c0,1.9,1.4,3.3,3.2,3.3C64.6,37.6,66,36.2,66,34.3z"/>
				<path class="st2" d="M82.3,34.3c0,3.3-2.6,5.9-6,5.9s-6-2.6-6-5.9c0-3.3,2.6-5.9,6-5.9S82.3,31,82.3,34.3z M79.5,34.3
					c0-1.9-1.4-3.4-3.2-3.4c-1.8,0-3.2,1.4-3.2,3.4c0,1.9,1.4,3.3,3.2,3.3C78.1,37.6,79.5,36.2,79.5,34.3z"/>
				<path class="st2" d="M91.1,39.9L87.7,36h-0.8v3.9h-2.8V28.6h5.7c2.4,0,4,1.5,4,3.7c0,1.8-1.1,3.2-3,3.6l3.5,4H91.1z M89.6,33.7
					c1,0,1.6-0.5,1.6-1.4c0-0.8-0.6-1.3-1.6-1.3h-2.6v2.7H89.6z"/>
			</g>
			<g>
				<path class="st0" d="M102.3,18.5v-1.6h2.6V14h-2.6v-1.6h6.7V14h-2.6v2.8h2.6v1.6H102.3z"/>
				<path class="st0" d="M105.3,29.5c-1.9,0-3.2-1.2-3.2-3c0-1.8,1.2-3,3.2-3h3.7v1.6h-3.7c-1,0-1.6,0.5-1.6,1.4
					c0,0.8,0.6,1.3,1.6,1.3h3.7v1.6H105.3z"/>
				<path class="st0" d="M105.7,38.8c0,0.6-0.5,1.3-1.5,1.3c-1.1,0-1.9-0.7-1.9-2.2v-3.5h6.7v3.4c0,1.2-0.7,2-1.8,2
					C106.3,39.9,105.8,39.3,105.7,38.8L105.7,38.8z M103.7,37.6c0,0.5,0.3,0.8,0.7,0.8c0.4,0,0.7-0.3,0.7-0.8v-1.6h-1.5V37.6z
					 M106.2,36.1v1.4c0,0.5,0.3,0.8,0.7,0.8c0.4,0,0.7-0.3,0.7-0.7v-1.5H106.2z"/>
			</g>
		</g>
		<rect x="97.8" y="12.6" class="st2" width="0.5" height="27.2"/>
		<polygon class="st2" points="74.2,18 70.7,12.4 74,12.4 77.4,18 74,23.6 70.7,23.6 		"/>
	</g>
</g>
</svg>
