<?xml version="1.0" encoding="utf-8"?>
<!-- Generator: Adobe Illustrator 23.0.3, SVG Export Plug-In . SVG Version: 6.00 Build 0)  -->
<svg version="1.1" id="Layer_1" xmlns="http://www.w3.org/2000/svg" xmlns:xlink="http://www.w3.org/1999/xlink" x="0px" y="0px"
	 viewBox="0 0 1024 512" style="enable-background:new 0 0 1024 512;" xml:space="preserve">
<style type="text/css">
	.st0{fill:#716ACA;}
</style>
<g>
	<path class="st0" d="M460,301.7c0,8.5,6.9,15.4,15.4,15.4c8.5,0,15.4-6.9,15.4-15.4c0-8.5-6.9-15.4-15.4-15.4
		C466.9,286.2,460,293.2,460,301.7L460,301.7z M533.3,301.7c0,8.5,6.9,15.4,15.4,15.4s15.4-6.9,15.4-15.4c0-8.5-6.9-15.4-15.4-15.4
		S533.3,293.2,533.3,301.7L533.3,301.7z M532.7,366.5c-1,0-2-0.4-2.7-1.2c-5.3-6.1-11.1-9.2-17.1-9.2h0c-10.4,0-18.6,9.1-18.7,9.2
		c-1.3,1.5-3.6,1.6-5.1,0.3c-1.5-1.3-1.6-3.6-0.3-5.1c0.4-0.5,10.4-11.6,24-11.6c8.2,0,15.7,3.9,22.5,11.6c1.3,1.5,1.2,3.8-0.3,5.1
		C534.4,366.2,533.6,366.5,532.7,366.5L532.7,366.5z"/>
	<path class="st0" d="M598.2,120.9H426c-16,0-29.1,13-29.1,29.1v238.5c0,16,13,29.1,29.1,29.1h172.3c16,0,29.1-13,29.1-29.1V150
		C627.3,133.9,614.3,120.9,598.2,120.9L598.2,120.9z M426,128.1h172.3c12.1,0,21.9,9.8,21.9,21.9v25h-216v-25
		C404.1,137.9,413.9,128.1,426,128.1L426,128.1z M598.2,410.3H426c-12.1,0-21.9-9.8-21.9-21.9V182.2h216v206.3
		C620.1,400.5,610.3,410.3,598.2,410.3L598.2,410.3z"/>
	<path class="st0" d="M414.6,150.8c0,5.3,4.2,9.6,9.5,9.6c5.3,0,9.6-4.2,9.6-9.5c0,0,0-0.1,0-0.1c0-5.3-4.2-9.6-9.5-9.6
		c-5.3,0-9.6,4.2-9.6,9.5C414.6,150.8,414.6,150.8,414.6,150.8z M443.8,150.8c0,5.3,4.2,9.6,9.5,9.6c5.3,0,9.6-4.2,9.6-9.5
		c0,0,0-0.1,0-0.1c0-5.3-4.2-9.6-9.5-9.6c-5.3,0-9.6,4.2-9.6,9.5C443.8,150.8,443.8,150.8,443.8,150.8z M473.1,150.8
		c0,5.3,4.2,9.6,9.5,9.6c5.3,0,9.6-4.2,9.6-9.5c0,0,0-0.1,0-0.1c0-5.3-4.2-9.6-9.5-9.6c-5.3,0-9.6,4.2-9.6,9.5
		C473.1,150.8,473.1,150.8,473.1,150.8z M612.9,150.8c0,2.6-2.1,4.8-4.8,4.8h-73.3c-2.6-0.1-4.7-2.2-4.7-4.9
		c0.1-2.6,2.1-4.6,4.7-4.7h73.3C610.8,146.1,612.9,148.2,612.9,150.8C612.9,150.8,612.9,150.8,612.9,150.8L612.9,150.8z M421.5,70.8
		l5.6-11l1,12.3l11,5.6l-12.3,1l-5.6,11l-1-12.3l-11-5.6L421.5,70.8z M341.6,126.5l3.8-7.3l0.6,8.2l7.3,3.8l-8.2,0.6l-3.8,7.4
		l-0.6-8.2l-7.3-3.8L341.6,126.5z M725.6,115.5l8.3-4.6l-4.7,8.3l4.7,8.3l-8.3-4.6l-8.3,4.6l4.7-8.3l-4.7-8.3L725.6,115.5z
		 M355.4,269.3l8.3-4.6l-4.7,8.3l4.7,8.3l-8.3-4.6l-8.3,4.6l4.7-8.3l-4.7-8.3L355.4,269.3z M683.3,403.3c-7.6,0-13.7-6.1-13.7-13.7
		s6.1-13.7,13.7-13.7S697,382,697,389.6S690.9,403.3,683.3,403.3z M683.3,381.3c-4.6,0-8.3,3.7-8.3,8.3s3.7,8.3,8.3,8.3
		c4.6,0,8.3-3.7,8.3-8.3S687.9,381.3,683.3,381.3L683.3,381.3z M284.2,267.4c-5.2,0-9.3-4.2-9.3-9.3c0-5.2,4.2-9.3,9.3-9.3
		c5.2,0,9.3,4.2,9.3,9.3C293.5,263.2,289.3,267.4,284.2,267.4z M284.2,252.3c-3.2,0-5.7,2.6-5.7,5.7c0,3.2,2.6,5.7,5.7,5.7
		c3.2,0,5.7-2.6,5.7-5.7C289.9,254.9,287.4,252.3,284.2,252.3z M330,374.7c-8.9,0-16.1-7.2-16.1-16.1c0-8.9,7.2-16.1,16.1-16.1
		s16.1,7.2,16.1,16.1C346,367.5,338.8,374.7,330,374.7z M330,347.9c-5.9,0-10.7,4.8-10.7,10.7c0,5.9,4.8,10.7,10.7,10.7
		s10.7-4.8,10.7-10.7C340.6,352.7,335.9,347.9,330,347.9z M296.4,99.1c0,2.5,2.1,4.6,4.6,4.6c2.5,0,4.6-2.1,4.6-4.6c0,0,0,0,0,0
		c0-2.5-2.1-4.6-4.6-4.6C298.5,94.5,296.4,96.5,296.4,99.1C296.4,99.1,296.4,99.1,296.4,99.1z M731.2,280.8c0,4.3,3.5,7.8,7.8,7.8
		s7.8-3.5,7.8-7.8s-3.5-7.8-7.8-7.8S731.2,276.5,731.2,280.8z M672.3,198.9c-7.6,0-13.7-6.2-13.7-13.7c0-7.6,6.2-13.7,13.7-13.7
		c7.6,0,13.7,6.2,13.7,13.7S679.9,198.9,672.3,198.9z M672.3,175c-5.6,0-10.1,4.5-10.2,10.2c0,5.6,4.5,10.1,10.2,10.1
		c5.6,0,10.1-4.5,10.2-10.1C682.4,179.6,677.9,175,672.3,175L672.3,175z"/>
	<path class="st0" d="M642.2,43.1c-9.9,0-17.9-7.9-17.9-17.6S632.4,8,642.2,8c9.9,0,17.9,7.9,17.9,17.6S652.1,43.1,642.2,43.1z
		 M642.2,14.2c-6.4,0-11.6,5.1-11.6,11.4c0,6.3,5.2,11.4,11.6,11.4c6.4,0,11.6-5.1,11.6-11.4C653.8,19.3,648.6,14.2,642.2,14.2z"/>
	<path class="st0" d="M488.2,28.3c-6,0-10.9-4.8-10.9-10.7c0-5.9,4.9-10.7,10.9-10.7s10.9,4.8,10.9,10.7S494.2,28.3,488.2,28.3
		L488.2,28.3z M488.2,10c-4.3,0-7.7,3.4-7.7,7.6s3.5,7.6,7.7,7.6c4.3,0,7.7-3.4,7.7-7.6S492.5,10,488.2,10z"/>
	<path class="st0" d="M730.7,347.1c0,4.6,3.7,8.3,8.3,8.3s8.3-3.7,8.3-8.3s-3.7-8.3-8.3-8.3S730.7,342.5,730.7,347.1z M288.4,470.8
		h-26.6c-2,0-3.6-1.6-3.6-3.6c0-2,1.6-3.6,3.6-3.6h26.6c2,0,3.6,1.6,3.6,3.6C292,469.2,290.4,470.8,288.4,470.8L288.4,470.8z
		 M359.1,470.8h-55.5c-2,0-3.6-1.6-3.6-3.6c0-2,1.6-3.6,3.6-3.6h55.5c2,0,3.6,1.6,3.6,3.6C362.6,469.2,361,470.8,359.1,470.8z
		 M762.2,470.8h-55.5c-2,0-3.6-1.6-3.6-3.6c0-2,1.6-3.6,3.6-3.6h55.5c2,0,3.6,1.6,3.6,3.6C765.8,469.2,764.2,470.8,762.2,470.8z
		 M688,470.8H371.7c-2,0-3.6-1.6-3.6-3.6c0-2,1.6-3.6,3.6-3.6H688c2,0,3.6,1.6,3.6,3.6C691.6,469.2,689.9,470.8,688,470.8L688,470.8
		z M403.4,505.1h-37.3c-2,0-3.6-1.6-3.6-3.6c0-2,1.6-3.6,3.6-3.6h37.3c2,0,3.6,1.6,3.6,3.6C407,503.4,405.4,505.1,403.4,505.1z
		 M667.9,505.1H419.5c-2,0-3.6-1.6-3.6-3.6c0-2,1.6-3.6,3.6-3.6h248.4c2,0,3.6,1.6,3.6,3.6C671.5,503.4,669.9,505.1,667.9,505.1
		L667.9,505.1z"/>
	<path class="st0" d="M541.9,57.4c-5.2,0-9.5-4.2-9.5-9.3c0-5.1,4.3-9.3,9.5-9.3s9.5,4.2,9.5,9.3C551.4,53.2,547.1,57.4,541.9,57.4
		L541.9,57.4z M541.9,41.8c-3.5,0-6.3,2.8-6.3,6.2c0,3.4,2.8,6.2,6.3,6.2c3.5,0,6.3-2.8,6.3-6.2C548.2,44.6,545.4,41.8,541.9,41.8
		L541.9,41.8z"/>
</g>
</svg>
