<?xml version="1.0" encoding="utf-8"?>
<!-- Generator: Adobe Illustrator 24.0.1, SVG Export Plug-In . SVG Version: 6.00 Build 0)  -->
<svg version="1.1" id="Capa_1" xmlns="http://www.w3.org/2000/svg" xmlns:xlink="http://www.w3.org/1999/xlink" x="0px" y="0px"
	 viewBox="0 0 465.2 465.2" style="enable-background:new 0 0 465.2 465.2;" xml:space="preserve">
<style type="text/css">
	.st0{fill:#00DE00;}
</style>
<g>
	<path class="st0" d="M193.9,455.3c-0.7,0-1.3-0.1-2-0.2c-4.5-0.8-9-1.8-13.4-2.9c-2.8-0.7-5.1-2.4-6.6-4.9
		c-1.5-2.4-1.9-5.3-1.2-8.1c1.2-4.8,5.5-8.1,10.4-8.1c0.9,0,1.7,0.1,2.6,0.3c4,1,8.1,1.9,12.1,2.6c5.8,1.1,9.7,6.7,8.6,12.5
		c-0.5,2.8-2.1,5.2-4.4,6.8C198.2,454.7,196.1,455.3,193.9,455.3z"/>
	<path class="st0" d="M193.9,451.3c1.4,0,2.7-0.4,3.8-1.2c1.4-1,2.4-2.5,2.7-4.3c0.7-3.6-1.7-7.1-5.4-7.8c-4.1-0.8-8.2-1.7-12.3-2.7
		c-0.5-0.1-1.1-0.2-1.6-0.2c-3.1,0-5.7,2.1-6.5,5.1c-0.4,1.7-0.2,3.5,0.8,5.1c0.9,1.5,2.4,2.6,4.1,3c4.3,1.1,8.7,2,13.1,2.9
		C193,451.3,193.4,451.3,193.9,451.3L193.9,451.3z"/>
	<path class="st0" d="M193.9,451.3c-0.4,0-0.8,0-1.2-0.1c-4.4-0.8-8.8-1.8-13.2-2.9c-1.7-0.4-3.2-1.5-4.1-3
		c-0.9-1.5-1.2-3.3-0.8-5.1c0.7-3,3.4-5.1,6.5-5.1c0.5,0,1.1,0.1,1.6,0.2c4.1,1,8.2,1.9,12.3,2.7c3.6,0.7,6,4.2,5.4,7.8
		c-0.3,1.7-1.3,3.2-2.7,4.3C196.6,450.9,195.2,451.3,193.9,451.3z"/>
	<path class="st0" d="M193.9,447.3c-0.2,0-0.3,0-0.5,0c-4.3-0.8-8.7-1.7-12.9-2.8c-0.7-0.2-1.3-0.6-1.7-1.2c-0.4-0.6-0.5-1.3-0.3-2
		c0.3-1.2,1.4-2.1,2.6-2.1c0.2,0,0.4,0,0.7,0.1c4.2,1,8.4,2,12.6,2.7c1.5,0.3,2.4,1.7,2.2,3.2c-0.1,0.7-0.5,1.3-1.1,1.7
		C194.9,447.2,194.4,447.3,193.9,447.3z"/>
	<path class="st0" d="M29.6,177.9c-1.1,0-2.3-0.2-3.4-0.5c-5.6-1.9-8.7-7.9-6.8-13.5c1.4-4.3,3-8.6,4.7-12.9
		c1.6-4.1,5.5-6.7,9.9-6.7c1.4,0,2.7,0.3,4,0.8c2.7,1.1,4.7,3.1,5.9,5.7c1.1,2.6,1.2,5.5,0.1,8.2c-1.5,3.8-3,7.8-4.2,11.6
		c-0.9,2.8-2.7,4.5-4,5.4C33.9,177.2,31.7,177.9,29.6,177.9z"/>
	<path class="st0" d="M29.6,173.9c1.4,0,2.7-0.4,3.9-1.2c0.8-0.6,1.9-1.6,2.5-3.4c1.3-4,2.8-8,4.3-11.9c0.7-1.7,0.6-3.5-0.1-5.1
		c-0.7-1.6-2-2.9-3.7-3.6c-0.8-0.3-1.6-0.5-2.5-0.5c-2.8,0-5.2,1.7-6.2,4.2c-1.7,4.2-3.2,8.4-4.6,12.6c-1.2,3.5,0.8,7.3,4.3,8.5
		C28.1,173.8,28.8,173.9,29.6,173.9L29.6,173.9z"/>
	<path class="st0" d="M29.6,173.9c-0.7,0-1.4-0.1-2.1-0.3c-3.5-1.2-5.4-5-4.3-8.5c1.4-4.2,2.9-8.4,4.6-12.6c1-2.6,3.5-4.2,6.2-4.2
		c0.8,0,1.7,0.2,2.5,0.5c1.7,0.7,3,1.9,3.7,3.6c0.7,1.6,0.7,3.5,0.1,5.1c-1.6,3.9-3,7.9-4.3,11.9c-0.5,1.4-1.3,2.5-2.5,3.4
		C32.3,173.4,30.9,173.9,29.6,173.9z"/>
	<path class="st0" d="M29.6,169.9c-0.3,0-0.6,0-0.8-0.1c-1.4-0.5-2.2-2-1.7-3.4c1.4-4.1,2.9-8.3,4.5-12.4c0.4-1.1,1.4-1.7,2.5-1.7
		c0.3,0,0.7,0.1,1,0.2c0.7,0.3,1.2,0.8,1.5,1.4c0.3,0.7,0.3,1.4,0,2.1c-1.6,4-3.1,8.1-4.4,12.1c-0.2,0.6-0.5,1-1,1.4
		C30.7,169.7,30.1,169.9,29.6,169.9z"/>
	<path class="st0" d="M125.6,430.2c-1.9,0-3.7-0.5-5.3-1.4c-4-2.3-7.9-4.7-11.7-7.2c-2.4-1.6-4-4-4.6-6.8s0-5.7,1.6-8
		c2-3,5.3-4.8,8.9-4.8c2.1,0,4.1,0.6,5.9,1.8c3.5,2.3,7,4.5,10.5,6.5c2.5,1.4,4.2,3.7,5,6.5c0.7,2.8,0.4,5.7-1.1,8.1
		c-0.8,1.3-1.8,2.5-3.1,3.4C130,429.5,127.8,430.2,125.6,430.2L125.6,430.2z"/>
	<path class="st0" d="M125.6,426.2c1.4,0,2.8-0.4,3.9-1.2c0.8-0.6,1.4-1.3,1.9-2.1c0.9-1.6,1.1-3.4,0.7-5.1
		c-0.5-1.7-1.6-3.2-3.1-4.1c-3.6-2.1-7.2-4.3-10.8-6.6c-1.1-0.7-2.4-1.1-3.7-1.1c-2.3,0-4.4,1.1-5.6,3c-1,1.5-1.3,3.3-1,5
		s1.4,3.3,2.9,4.2c3.7,2.4,7.5,4.8,11.4,7.1C123.3,425.9,124.4,426.2,125.6,426.2L125.6,426.2z"/>
	<path class="st0" d="M125.6,426.2c-1.2,0-2.3-0.3-3.3-0.9c-3.9-2.2-7.7-4.6-11.4-7.1c-1.5-1-2.5-2.5-2.9-4.2c-0.4-1.8,0-3.5,1-5
		c1.2-1.9,3.3-3,5.6-3c1.3,0,2.6,0.4,3.7,1.1c3.5,2.3,7.2,4.6,10.8,6.6c1.6,0.9,2.7,2.3,3.1,4.1c0.5,1.7,0.2,3.5-0.7,5.1
		c-0.5,0.8-1.1,1.6-1.9,2.1C128.4,425.7,127,426.2,125.6,426.2L125.6,426.2L125.6,426.2z"/>
	<path class="st0" d="M125.6,422.2c-0.5,0-0.9-0.1-1.3-0.4c-3.8-2.2-7.6-4.5-11.2-6.9c-0.6-0.4-1-1-1.2-1.7c-0.1-0.7,0-1.4,0.4-2
		c0.5-0.8,1.3-1.2,2.3-1.2c0.5,0,1,0.2,1.5,0.5c3.6,2.4,7.3,4.7,11,6.8c0.6,0.4,1.1,0.9,1.3,1.6c0.2,0.7,0.1,1.4-0.3,2.1
		c-0.2,0.3-0.5,0.6-0.8,0.9C126.8,422,126.2,422.2,125.6,422.2z"/>
	<path class="st0" d="M18.7,249.8c-5.8,0-10.6-4.7-10.7-10.5c-0.1-4.6-0.1-9.2,0.1-13.7c0.2-5.8,4.9-10.3,10.7-10.3
		c0.1,0,0.3,0,0.4,0c5.9,0.2,10.5,5.2,10.3,11.1c-0.2,4.2-0.2,8.4-0.1,12.4c0.1,3.6-1.6,6.9-4.6,9c-1.2,0.9-3.2,1.9-5.9,1.9
		L18.7,249.8L18.7,249.8z"/>
	<path class="st0" d="M18.9,245.8c1.7,0,2.9-0.7,3.7-1.2c1.8-1.3,2.9-3.4,2.9-5.6c-0.1-4.1-0.1-8.3,0.1-12.6c0.1-3.7-2.7-6.8-6.4-7
		c-0.1,0-0.2,0-0.3,0c-3.6,0-6.5,2.8-6.7,6.4c-0.2,4.4-0.2,9-0.1,13.5c0.1,3.6,3.1,6.6,6.7,6.6L18.9,245.8z"/>
	<path class="st0" d="M18.7,245.8c-3.6,0-6.6-3-6.6-6.6c-0.1-4.5-0.1-9,0.1-13.5c0.1-3.6,3.1-6.4,6.7-6.4l0.2,0
		c1.9,0.1,3.5,0.8,4.7,2.2c1.2,1.3,1.8,3,1.8,4.8c-0.2,4.3-0.2,8.5-0.1,12.6c0,2.2-1,4.3-2.9,5.6c-1.1,0.8-2.4,1.2-3.7,1.2
		L18.7,245.8L18.7,245.8z"/>
	<path class="st0" d="M18.7,241.8c-1.4,0-2.6-1.2-2.7-2.6c-0.1-4.4-0.1-8.9,0.1-13.2c0.1-1.5,1.2-2.6,2.7-2.6l0.1,0
		c1.5,0.1,2.6,1.3,2.6,2.8c-0.2,4.4-0.2,8.7-0.1,12.9c0,0.9-0.4,1.7-1.2,2.3C20,241.5,19.5,241.7,18.7,241.8L18.7,241.8z"/>
	<path class="st0" d="M69.8,383.7c-3.1,0-6.1-1.4-8.2-3.8c-2.9-3.4-5.8-7-8.6-10.7c-3.5-4.7-2.6-11.4,2.1-15
		c2.4-1.8,4.8-2.1,6.4-2.1c3.4,0,6.5,1.6,8.6,4.3c2.5,3.3,5.1,6.5,7.7,9.7c3.8,4.5,3.3,11.3-1.2,15.1c-0.3,0.2-0.5,0.4-0.8,0.6
		C73.6,383.3,71.3,383.7,69.8,383.7z"/>
	<path class="st0" d="M69.8,379.7c1,0,2.4-0.2,3.8-1.2c0.2-0.1,0.4-0.3,0.5-0.4c2.8-2.4,3.1-6.6,0.7-9.4c-2.7-3.2-5.4-6.5-7.9-9.9
		c-1.3-1.7-3.2-2.7-5.4-2.7c-1,0-2.5,0.2-4,1.3c-3,2.2-3.6,6.4-1.3,9.4c2.7,3.6,5.5,7.2,8.4,10.5C65.9,378.8,67.8,379.7,69.8,379.7
		L69.8,379.7z"/>
	<path class="st0" d="M69.8,379.7c-2,0-3.8-0.9-5.1-2.4c-2.9-3.4-5.7-6.9-8.4-10.5c-2.2-3-1.6-7.2,1.3-9.4c1.2-0.9,2.6-1.3,4-1.3
		c2.1,0,4.1,1,5.4,2.7c2.5,3.3,5.2,6.7,7.9,9.9c2.4,2.8,2.1,7-0.7,9.4c-0.1,0.1-0.3,0.3-0.5,0.4C72.5,379.3,71.1,379.7,69.8,379.7z"
		/>
	<path class="st0" d="M69.8,375.7c-0.8,0-1.6-0.3-2.1-0.9c-2.8-3.3-5.6-6.8-8.3-10.3c-0.9-1.2-0.7-2.9,0.5-3.8
		c0.5-0.4,1-0.5,1.6-0.5c0.9,0,1.6,0.4,2.2,1.1c2.6,3.4,5.3,6.8,8,10.1c1,1.1,0.8,2.8-0.3,3.8c-0.1,0.1-0.1,0.1-0.2,0.2
		C70.8,375.5,70.3,375.7,69.8,375.7z"/>
	<path class="st0" d="M32.7,321.1c-4.4,0-8.4-2.8-10-6.9c-1.6-4.2-3.1-8.5-4.5-12.9c-1.8-5.6,1.4-11.7,7-13.4c1-0.3,2.1-0.5,3.2-0.5
		c4.7,0,8.8,3,10.2,7.5c1.2,3.9,2.6,7.9,4.1,11.7c1.7,4.6,0.2,9.7-3.8,12.5c-0.8,0.5-1.5,0.9-2.4,1.3
		C35.3,320.8,34,321.1,32.7,321.1z"/>
	<path class="st0" d="M32.7,317.1c0.8,0,1.6-0.1,2.4-0.4c0.5-0.2,1-0.5,1.5-0.8c2.5-1.8,3.5-5,2.4-7.9c-1.5-3.9-2.9-7.9-4.1-11.9
		c-0.9-2.8-3.5-4.7-6.4-4.7c-0.7,0-1.3,0.1-2,0.3c-3.5,1.1-5.5,4.9-4.4,8.4c1.4,4.3,2.8,8.6,4.4,12.7
		C27.5,315.3,30,317.1,32.7,317.1L32.7,317.1z"/>
	<path class="st0" d="M32.7,317.1c-2.8,0-5.3-1.7-6.3-4.3c-1.6-4.1-3.1-8.4-4.4-12.7c-1.1-3.5,0.9-7.3,4.4-8.4
		c0.7-0.2,1.3-0.3,2-0.3c2.9,0,5.5,1.9,6.4,4.7c1.3,4,2.7,8,4.1,11.9c1.1,2.9,0.1,6.1-2.4,7.9c-0.5,0.3-1,0.6-1.5,0.8
		C34.4,316.9,33.5,317.1,32.7,317.1z"/>
	<path class="st0" d="M32.7,313.1c-1.1,0-2.1-0.7-2.5-1.7c-1.5-4-3-8.2-4.3-12.5c-0.4-1.4,0.3-2.9,1.8-3.4c0.3-0.1,0.5-0.1,0.8-0.1
		c1.2,0,2.2,0.7,2.6,1.9c1.3,4.1,2.7,8.2,4.2,12.2c0.4,1.2,0.1,2.5-0.9,3.2c-0.2,0.1-0.4,0.2-0.6,0.3
		C33.4,313,33.1,313.1,32.7,313.1z"/>
	<path class="st0" d="M270.5,455.5c-5.2,0-9.6-3.7-10.5-8.8c-0.5-2.8,0.1-5.7,1.8-8s4.1-3.9,6.9-4.4c17.3-3.1,34.1-8.4,49.9-15.9
		l0.1-0.1c0.1-0.1,0.6-0.3,0.6-0.3l0.1-0.1c3.5-1.7,7-3.4,10.3-5.2l2-1.1l0.5-0.3c6-3.4,11.8-7.1,17.4-11
		c44.3-31.2,73.8-77.9,83.1-131.4c9.3-53.5-2.8-107.4-34-151.7c-13.7-19.5-30.5-36.2-49.9-49.7l-0.7-0.5
		c-34-23.5-74-35.9-115.6-35.9c-40.1,0-79,11.8-112.4,34.1l-6.8,4.5l16.9,24.4l-62.8-5.6l16.9-60.7L101,52.2l6.5-4.4
		c37.1-24.9,80.2-38.1,124.6-38.1c12.9,0,26,1.1,38.8,3.4c5.7,1,11.4,2.2,17.1,3.7l0.3,0.1l0.5,0.1c49.8,12.8,92.5,41.4,123.4,82.7
		l0.1,0.2l0.6,0.7l0.1,0.1c1,1.4,2,2.8,3,4.2c1.6,2.3,3.2,4.7,4.7,7l0.1,0.2l0.4,0.6l0.1,0.1c25.4,39.3,37.7,84.7,35.6,131.3l0,0.1
		c0,0.1,0,0.6,0,0.6c-0.2,4.3-0.5,8.7-1,13.1l0,0.1l-0.1,0.7l0,0.2c-0.5,4.7-1.2,9.3-1.9,13.7c-8,46.2-29.7,87.9-62.7,120.7
		l-0.2,0.2l-0.1,0.1l-0.4,0.4c-8.9,8.7-18.5,16.8-28.6,23.9c-27,19.1-57.2,31.7-89.5,37.5C271.8,455.5,271.1,455.5,270.5,455.5z"/>
	<path class="st0" d="M270.5,451.5c0.4,0,0.8,0,1.2-0.1c31.8-5.7,61.4-18.1,87.9-36.8c10-7,19.4-14.9,28.1-23.5l0.5-0.5l0.2-0.1
		c32.4-32.2,53.7-73.1,61.5-118.5c0.7-4.3,1.4-8.8,1.9-13.4l0-0.3l0.1-0.7c0.5-4.4,0.8-8.7,1-12.9c0-0.2,0-0.4,0-0.6l0-0.2
		c2.1-45.7-10-90.3-34.9-128.9l-0.1-0.2l-0.4-0.7c-1.5-2.3-3-4.6-4.6-6.9c-1-1.4-1.9-2.7-2.9-4.1l-0.6-0.7l-0.2-0.3
		c-30.4-40.6-72.3-68.7-121.2-81.3l-0.4-0.1l-0.3-0.1c-5.6-1.4-11.3-2.6-16.8-3.6c-12.6-2.2-25.5-3.3-38.2-3.3
		c-43.6,0-85.9,12.9-122.3,37.4l-9.8,6.6L85.8,37.2L72.5,85.1l49.5,4.4l-14.4-20.8l10.2-6.8c34.1-22.7,73.7-34.7,114.7-34.7
		c42.4,0,83.2,12.7,117.9,36.6l0.7,0.5c19.8,13.8,36.9,30.8,50.9,50.7c31.8,45.2,44.1,100.1,34.7,154.7s-39.6,102.2-84.7,134
		c-5.7,4-11.7,7.8-17.8,11.2l0,0.1l-2.5,1.4c-3.4,1.8-6.9,3.6-10.5,5.3c-0.1,0.1-0.6,0.3-0.6,0.3l-0.2,0.1
		c-16.2,7.6-33.3,13-50.9,16.2c-1.8,0.3-3.3,1.3-4.3,2.8c-1,1.5-1.4,3.3-1.1,5C264.5,449.2,267.2,451.5,270.5,451.5
		C270.5,451.5,270.5,451.5,270.5,451.5z"/>
	<path class="st0" d="M270.5,451.5c-3.2,0-6-2.3-6.6-5.5c-0.3-1.8,0.1-3.5,1.1-5c1-1.5,2.6-2.5,4.3-2.8c17.6-3.2,34.8-8.6,50.9-16.2
		l0.2-0.1l0.6-0.3l0.1,0c3.5-1.7,7-3.4,10.4-5.2l2.5-1.4l0,0l0.6-0.4c5.9-3.3,11.6-7,17.1-10.9c45.2-31.8,75.3-79.4,84.7-134
		c9.5-54.6-2.8-109.5-34.7-154.7c-14-19.8-31.1-36.9-50.9-50.7l-0.7-0.5c-34.7-23.9-75.5-36.6-117.9-36.6
		c-40.9,0-80.6,12-114.7,34.7l-10.2,6.8L122,89.5l-49.5-4.4l13.3-47.9L100,57.7l9.8-6.6c36.5-24.5,78.8-37.4,122.3-37.4
		c12.7,0,25.5,1.1,38.2,3.3c5.6,1,11.2,2.2,16.8,3.6l0.4,0.1l0.3,0.1c48.9,12.6,90.9,40.7,121.2,81.3l0.2,0.3l0.6,0.7l0.1,0.1
		c1,1.3,1.9,2.6,2.9,4c1.6,2.3,3.1,4.5,4.6,6.8l0.1,0.1l0.4,0.7l0.1,0.2c24.9,38.6,37,83.2,34.9,128.9l0,0.2c0,0.2,0,0.6,0,0.6
		l0,0.1c-0.2,4.1-0.5,8.4-1,12.7l0,0.1l-0.1,0.7l0,0.3c-0.5,4.6-1.2,9.2-1.9,13.4c-7.9,45.3-29.1,86.2-61.4,118.4l-0.2,0.2l-0.2,0.1
		l-0.5,0.5c-8.7,8.6-18.1,16.4-28.1,23.4c-26.6,18.7-56.2,31.1-87.9,36.8C271.3,451.5,270.9,451.5,270.5,451.5z"/>
	<path class="st0" d="M270.5,447.5c-1.3,0-2.4-0.9-2.6-2.2c-0.1-0.7,0-1.4,0.4-2c0.4-0.6,1-1,1.7-1.1c18-3.2,35.5-8.8,51.9-16.5
		l0.3-0.1c0,0,0.4-0.2,0.6-0.3c3.6-1.7,7.2-3.5,10.5-5.3l3.2-1.8l0.1-0.1c6-3.4,11.8-7.1,17.5-11.1c46-32.4,76.7-80.9,86.4-136.6
		c9.6-55.6-2.9-111.6-35.3-157.7c-14.2-20.2-31.7-37.6-51.9-51.6l-0.7-0.5c-35.4-24.4-77-37.3-120.2-37.3
		c-41.7,0-82.1,12.2-116.9,35.4l-13.5,9l11.8,17.1l-36.2-3.2l9.7-35l11.6,16.7l13.1-8.8c35.8-24,77.3-36.7,120.1-36.7
		c12.5,0,25.1,1.1,37.5,3.2c5.5,0.9,11,2.1,16.5,3.5l0.3,0.1l0.3,0.1c48.1,12.4,89.3,40,119.1,79.8l0.3,0.4l0.6,0.7
		c1,1.3,1.9,2.6,2.8,3.9c1.6,2.2,3.1,4.5,4.5,6.6l0.4,0.7l0.2,0.3C439.1,155,451,198.8,449,243.7l0,0.2c0,0.2,0,0.5,0,0.7
		c-0.2,4-0.5,8.2-1,12.4l-0.1,0.7l-0.1,0.5c-0.5,4.6-1.1,9-1.9,13.2c-7.7,44.5-28.5,84.7-60.3,116.2l-0.2,0.2l-0.6,0.6
		c-8.5,8.4-17.8,16.1-27.6,23c-26.1,18.4-55.1,30.5-86.3,36.1C270.8,447.5,270.6,447.5,270.5,447.5z"/>
	<path class="st0" d="M114.4,314c-2.7,0-5.1-1.5-6.3-3.9c-0.9-1.7-1-3.6-0.5-5.4c0.6-1.8,1.8-3.3,3.5-4.2L237,235.5V98.3
		c0-3.9,3.2-7.1,7.1-7.1c3.9,0,7.1,3.2,7.1,7.1v145.9l-133.6,69C116.6,313.8,115.6,314,114.4,314z"/>
	<path class="st0" d="M114.4,310c0.5,0,1-0.1,1.4-0.3l131.4-67.9V98.3c0-1.7-1.4-3.1-3.1-3.1c-1.7,0-3.1,1.4-3.1,3.1V238l-128,66.2
		c-1,0.5-1.4,1.3-1.5,1.8c-0.2,0.6-0.3,1.4,0.2,2.4C112.3,309.6,113.5,310,114.4,310z"/>
	<path class="st0" d="M114.4,314c-2.7,0-5.1-1.5-6.3-3.9c-0.9-1.7-1-3.6-0.5-5.4c0.6-1.8,1.8-3.3,3.5-4.2L237,235.5V98.3
		c0-3.9,3.2-7.1,7.1-7.1c3.9,0,7.1,3.2,7.1,7.1v145.9l-133.6,69C116.6,313.8,115.6,314,114.4,314z"/>
	<path class="st0" d="M114.4,310c0.5,0,1-0.1,1.4-0.3l131.4-67.9V98.3c0-1.7-1.4-3.1-3.1-3.1c-1.7,0-3.1,1.4-3.1,3.1V238l-128,66.2
		c-1,0.5-1.4,1.3-1.5,1.8c-0.2,0.6-0.3,1.4,0.2,2.4C112.3,309.6,113.5,310,114.4,310z"/>
</g>
</svg>
